<svg width="588" height="510" viewBox="0 0 588 510" fill="none" xmlns="http://www.w3.org/2000/svg">
<path d="M290.067 20.9922H178.543V168.262H290.067V20.9922Z" stroke="#263238" stroke-linecap="round" stroke-linejoin="round"/>
<path d="M277.085 38.1498H191.54V151.104H277.085V38.1498Z" stroke="#263238" stroke-linecap="round" stroke-linejoin="round"/>
<path d="M122.781 96.7716H11.2568V244.041H122.781V96.7716Z" stroke="#263238" stroke-linecap="round" stroke-linejoin="round"/>
<path d="M109.799 113.929H24.2539V226.883H109.799V113.929Z" stroke="#263238" stroke-linecap="round" stroke-linejoin="round"/>
<path d="M456.573 134.861C491.962 131.316 517.777 99.7543 514.232 64.3652C510.687 28.9761 479.125 3.16123 443.736 6.70601C408.347 10.2508 382.532 41.8129 386.077 77.202C389.621 112.591 421.183 138.406 456.573 134.861Z" stroke="#263238" stroke-linecap="round" stroke-linejoin="round"/>
<path d="M457.982 123.618C487.131 119.282 507.247 92.1374 502.911 62.988C498.576 33.8387 471.431 13.7232 442.281 18.0588C413.132 22.3944 393.017 49.5393 397.352 78.6886C401.688 107.838 428.833 127.953 457.982 123.618Z" stroke="#263238" stroke-linecap="round" stroke-linejoin="round"/>
<path d="M416.105 70.7922H450.149V119.906" stroke="#263238" stroke-linecap="round" stroke-linejoin="round"/>
<path d="M406.882 377.456L429.473 413.844C430.128 414.899 430.49 416.11 430.52 417.351C430.55 418.593 430.247 419.82 429.643 420.905C429.039 421.99 428.156 422.894 427.086 423.523C426.015 424.152 424.796 424.483 423.554 424.482H377.414C378.653 424.482 379.869 424.152 380.938 423.526C382.006 422.899 382.888 421.999 383.493 420.918C384.097 419.837 384.403 418.614 384.377 417.376C384.352 416.137 383.996 414.928 383.348 413.873L361.558 378.271L406.882 377.456Z" fill="white" stroke="#263238" stroke-linecap="round" stroke-linejoin="round"/>
<path d="M406.883 377.456L361.486 378.271L369.894 391.968H415.89L406.883 377.456Z" fill="#263238" stroke="#263238" stroke-linecap="round" stroke-linejoin="round"/>
<path d="M286.193 385.563H470.837C473.135 385.563 474.998 383.7 474.998 381.402V226.755C474.998 224.457 473.135 222.594 470.837 222.594L286.193 222.594C283.895 222.594 282.032 224.457 282.032 226.755V381.402C282.032 383.7 283.895 385.563 286.193 385.563Z" fill="white" stroke="#263238" stroke-linecap="round" stroke-linejoin="round"/>
<path d="M278.886 385.563H463.531C465.829 385.563 467.691 383.7 467.691 381.402V226.755C467.691 224.457 465.829 222.594 463.531 222.594L278.886 222.594C276.588 222.594 274.725 224.457 274.725 226.755V381.402C274.725 383.7 276.588 385.563 278.886 385.563Z" fill="white" stroke="#263238" stroke-linecap="round" stroke-linejoin="round"/>
<path d="M281.216 222.594H461.214C462.066 222.594 462.909 222.762 463.696 223.089C464.483 223.415 465.197 223.893 465.799 224.496C466.401 225.099 466.878 225.815 467.202 226.602C467.527 227.39 467.693 228.234 467.691 229.085V356.338H274.668V229.085C274.668 228.228 274.838 227.379 275.168 226.588C275.497 225.797 275.981 225.079 276.589 224.475C277.198 223.872 277.921 223.395 278.715 223.072C279.509 222.749 280.359 222.587 281.216 222.594Z" fill="#263238" stroke="#263238" stroke-linecap="round" stroke-linejoin="round"/>
<path d="M282.832 347.459H459.584V229.086L282.832 229.086V347.459Z" fill="white" stroke="#263238" stroke-linecap="round" stroke-linejoin="round"/>
<path d="M342.971 242.068H345.087V255.48H342.971V242.068Z" fill="#263238"/>
<path d="M348.503 245.786V255.48H346.602V242.025H349.261L351.434 250.075V242.025H353.322V255.48H351.148L348.503 245.786Z" fill="#263238"/>
<path d="M358.025 253.049L359.641 242.068H361.557L359.512 255.48H356.352L354.279 242.025H356.41L358.025 253.049Z" fill="#263238"/>
<path d="M362.372 245.299C362.343 244.86 362.404 244.419 362.552 244.004C362.7 243.589 362.932 243.209 363.233 242.887C363.534 242.566 363.898 242.309 364.302 242.134C364.706 241.959 365.142 241.868 365.582 241.868C366.023 241.868 366.459 241.959 366.863 242.134C367.267 242.309 367.631 242.566 367.932 242.887C368.233 243.209 368.464 243.589 368.612 244.004C368.76 244.419 368.822 244.86 368.792 245.299V252.291C368.822 252.731 368.76 253.172 368.612 253.587C368.464 254.001 368.233 254.382 367.932 254.703C367.631 255.025 367.267 255.281 366.863 255.457C366.459 255.632 366.023 255.723 365.582 255.723C365.142 255.723 364.706 255.632 364.302 255.457C363.898 255.281 363.534 255.025 363.233 254.703C362.932 254.382 362.7 254.001 362.552 253.587C362.404 253.172 362.343 252.731 362.372 252.291V245.299ZM364.488 252.448C364.488 253.406 364.917 253.764 365.589 253.764C366.261 253.764 366.676 253.406 366.676 252.448V245.185C366.676 244.213 366.261 243.855 365.589 243.855C364.917 243.855 364.488 244.213 364.488 245.185V252.448Z" fill="#263238"/>
<path d="M370.136 242.068H372.252V255.48H370.136V242.068Z" fill="#263238"/>
<path d="M379.944 250.504V252.291C379.944 254.45 378.872 255.68 376.799 255.68C376.355 255.715 375.909 255.649 375.494 255.488C375.079 255.326 374.705 255.073 374.402 254.748C374.098 254.422 373.871 254.032 373.739 253.607C373.607 253.181 373.573 252.732 373.639 252.291V245.299C373.573 244.859 373.607 244.409 373.739 243.984C373.871 243.559 374.098 243.169 374.402 242.843C374.705 242.517 375.079 242.264 375.494 242.103C375.909 241.941 376.355 241.876 376.799 241.911C378.872 241.911 379.944 243.14 379.944 245.299V246.601H377.957V245.171C377.957 244.198 377.528 243.841 376.856 243.841C376.184 243.841 375.755 244.198 375.755 245.171V252.434C375.755 253.392 376.184 253.735 376.856 253.735C377.528 253.735 377.957 253.392 377.957 252.434V250.504H379.944Z" fill="#263238"/>
<path d="M383.348 247.744H386.208V249.66H383.348V253.607H387.008V255.48H381.289V242.025H387.008V244.041H383.348V247.744Z" fill="#263238"/>
<path d="M453.322 260.841H290.182V270.936H453.322V260.841Z" fill="#92A4E3"/>
<path d="M290.711 336.292V277.842H452.264V338.422" stroke="#263238" stroke-miterlimit="10"/>
<path d="M291.254 297.501H451.735" stroke="#263238" stroke-miterlimit="10"/>
<path d="M407.626 277.413V338.422" stroke="#263238" stroke-miterlimit="10"/>
<path d="M203.722 416.332H198.103V418.205H203.722V416.332Z" fill="white" stroke="#263238" stroke-linecap="round" stroke-linejoin="round"/>
<path d="M211.199 416.332H205.58V418.205H211.199V416.332Z" fill="white" stroke="#263238" stroke-linecap="round" stroke-linejoin="round"/>
<path d="M218.692 416.332H213.073V418.205H218.692V416.332Z" fill="white" stroke="#263238" stroke-linecap="round" stroke-linejoin="round"/>
<path d="M226.17 416.332H220.551V418.205H226.17V416.332Z" fill="white" stroke="#263238" stroke-linecap="round" stroke-linejoin="round"/>
<path d="M233.662 416.332H228.043V418.205H233.662V416.332Z" fill="white" stroke="#263238" stroke-linecap="round" stroke-linejoin="round"/>
<path d="M241.14 416.332H235.521V418.205H241.14V416.332Z" fill="white" stroke="#263238" stroke-linecap="round" stroke-linejoin="round"/>
<path d="M248.632 416.332H243.013V418.205H248.632V416.332Z" fill="white" stroke="#263238" stroke-linecap="round" stroke-linejoin="round"/>
<path d="M256.109 416.332H250.49V418.205H256.109V416.332Z" fill="white" stroke="#263238" stroke-linecap="round" stroke-linejoin="round"/>
<path d="M263.602 416.332H257.982V418.205H263.602V416.332Z" fill="white" stroke="#263238" stroke-linecap="round" stroke-linejoin="round"/>
<path d="M271.08 416.332H265.461V418.205H271.08V416.332Z" fill="white" stroke="#263238" stroke-linecap="round" stroke-linejoin="round"/>
<path d="M278.571 416.332H272.952V418.205H278.571V416.332Z" fill="white" stroke="#263238" stroke-linecap="round" stroke-linejoin="round"/>
<path d="M286.05 416.332H280.431V418.205H286.05V416.332Z" fill="white" stroke="#263238" stroke-linecap="round" stroke-linejoin="round"/>
<path d="M293.542 416.332H287.923V418.205H293.542V416.332Z" fill="white" stroke="#263238" stroke-linecap="round" stroke-linejoin="round"/>
<path d="M301.02 416.332H295.4V418.205H301.02V416.332Z" fill="white" stroke="#263238" stroke-linecap="round" stroke-linejoin="round"/>
<path d="M308.512 416.332H302.893V418.205H308.512V416.332Z" fill="white" stroke="#263238" stroke-linecap="round" stroke-linejoin="round"/>
<path d="M315.99 416.332H310.371V418.205H315.99V416.332Z" fill="white" stroke="#263238" stroke-linecap="round" stroke-linejoin="round"/>
<path d="M323.481 416.332H317.862V418.205H323.481V416.332Z" fill="white" stroke="#263238" stroke-linecap="round" stroke-linejoin="round"/>
<path d="M330.96 416.332H325.341V418.205H330.96V416.332Z" fill="white" stroke="#263238" stroke-linecap="round" stroke-linejoin="round"/>
<path d="M338.452 416.332H332.833V418.205H338.452V416.332Z" fill="white" stroke="#263238" stroke-linecap="round" stroke-linejoin="round"/>
<path d="M345.93 416.332H340.311V418.205H345.93V416.332Z" fill="white" stroke="#263238" stroke-linecap="round" stroke-linejoin="round"/>
<path d="M353.422 416.332H347.803V418.205H353.422V416.332Z" fill="white" stroke="#263238" stroke-linecap="round" stroke-linejoin="round"/>
<path d="M357.497 418.477H195.2V424.525H357.497V418.477Z" fill="white" stroke="#263238" stroke-linecap="round" stroke-linejoin="round"/>
<path d="M357.497 418.477H317.906V424.525H357.497V418.477Z" fill="#263238" stroke="#263238" stroke-linecap="round" stroke-linejoin="round"/>
<path d="M514.374 287.836V266.918H499.361V287.836H489.367L506.868 318.148L524.354 287.836H514.374Z" fill="#263238"/>
<path d="M398.732 213.3V211.156" stroke="#263238" stroke-miterlimit="10"/>
<path d="M398.732 206.938V191.853C398.732 189.199 399.787 186.653 401.664 184.776C403.541 182.899 406.087 181.845 408.741 181.845H497.389C500.043 181.845 502.589 182.899 504.466 184.776C506.343 186.653 507.397 189.199 507.397 191.853V256.909" stroke="#263238" stroke-miterlimit="10" stroke-dasharray="2.95 2.95"/>
<path d="M507.397 259.054V261.199" stroke="#263238" stroke-miterlimit="10"/>
<path d="M455.567 330.544H546.359C548.73 330.544 551.002 331.485 552.678 333.161C554.354 334.837 555.296 337.11 555.296 339.48V411.699H446.631V339.48C446.631 337.11 447.572 334.837 449.248 333.161C450.924 331.485 453.197 330.544 455.567 330.544Z" fill="#263238" stroke="#263238" stroke-miterlimit="10"/>
<path d="M549.577 320.535H452.351V411.7H549.577V320.535Z" fill="white" stroke="#263238" stroke-miterlimit="10"/>
<path d="M397.103 364.273H567.549C568.998 364.273 570.387 364.848 571.411 365.873C572.436 366.897 573.011 368.286 573.011 369.735V423.853H397.145V364.273H397.103Z" fill="#263238" stroke="#263238" stroke-miterlimit="10"/>
<path d="M374.512 364.273H543.586C544.492 364.273 545.361 364.633 546.002 365.274C546.643 365.915 547.003 366.784 547.003 367.69V423.853H371.138V367.69C371.138 366.791 371.492 365.929 372.123 365.289C372.755 364.649 373.613 364.284 374.512 364.273Z" fill="#636363" stroke="#263238" stroke-miterlimit="10"/>
<path d="M386.236 364.273H531.876V403.278C531.876 406.475 530.606 409.54 528.346 411.801C526.085 414.061 523.019 415.331 519.823 415.331H398.29C395.093 415.331 392.027 414.061 389.767 411.801C387.506 409.54 386.236 406.475 386.236 403.278V364.273Z" fill="#636363" stroke="#263238" stroke-miterlimit="10"/>
<path d="M504.924 364.273H413.188V423.853H504.924V364.273Z" fill="#263238" stroke="#263238" stroke-miterlimit="10"/>
<path d="M421.224 395.271C421.224 395.271 424.341 410.098 417.306 415.574C410.272 421.05 375.142 419.864 375.142 419.864H489.94C489.94 419.864 503.995 423.381 503.209 398.002L421.224 395.271Z" fill="white" stroke="#263238" stroke-miterlimit="10"/>
<path d="M491.612 417.648H418.12L422.138 415.403H494.5L491.612 417.648Z" fill="#92A4E3"/>
<path d="M427.686 400.49C427.686 409.555 425.541 412.886 425.541 412.886H496.359C496.359 412.886 499.462 410.985 500.177 400.733" stroke="#A3A3A3" stroke-miterlimit="10"/>
<path d="M426.743 408.597H498.505" stroke="#A3A3A3" stroke-miterlimit="10"/>
<path d="M427.458 404.064H499.463" stroke="#A3A3A3" stroke-miterlimit="10"/>
<path d="M473.712 412.643C473.712 412.643 477.286 409.312 477.043 400.49" stroke="#A3A3A3" stroke-miterlimit="10"/>
<path d="M504.924 364.273H413.188V398.459H504.924V364.273Z" fill="#636363" stroke="#263238" stroke-miterlimit="10"/>
<path d="M504.909 419.935H404.866V423.853H504.909V419.935Z" fill="#263238" stroke="#263238" stroke-miterlimit="10"/>
<path d="M409.871 364.273H508.227V369.006C508.223 371.502 507.232 373.896 505.469 375.664C503.706 377.432 501.316 378.431 498.819 378.442H419.336C416.83 378.442 414.426 377.447 412.654 375.674C410.881 373.902 409.885 371.498 409.885 368.991V364.259L409.871 364.273Z" fill="#263238" stroke="#263238" stroke-miterlimit="10"/>
<path d="M541.327 374.911C541.327 375.519 541.147 376.113 540.809 376.619C540.471 377.124 539.991 377.518 539.429 377.751C538.867 377.983 538.249 378.044 537.653 377.926C537.057 377.807 536.509 377.514 536.079 377.084C535.649 376.655 535.356 376.107 535.238 375.51C535.119 374.914 535.18 374.296 535.413 373.734C535.645 373.173 536.039 372.693 536.545 372.355C537.05 372.017 537.645 371.837 538.253 371.837C539.068 371.837 539.85 372.161 540.426 372.737C541.003 373.314 541.327 374.095 541.327 374.911Z" fill="white" stroke="#263238" stroke-miterlimit="10"/>
<path d="M541.327 388.623C541.327 389.231 541.147 389.825 540.809 390.33C540.471 390.836 539.991 391.23 539.429 391.463C538.867 391.695 538.249 391.756 537.653 391.638C537.057 391.519 536.509 391.226 536.079 390.796C535.649 390.366 535.356 389.819 535.238 389.222C535.119 388.626 535.18 388.008 535.413 387.446C535.645 386.884 536.039 386.404 536.545 386.067C537.05 385.729 537.645 385.548 538.253 385.548C539.068 385.548 539.85 385.872 540.426 386.449C541.003 387.025 541.327 387.807 541.327 388.623Z" fill="white" stroke="#263238" stroke-miterlimit="10"/>
<path d="M538.982 418.977H537.123C536.448 418.977 535.801 418.709 535.324 418.232C534.846 417.754 534.578 417.107 534.578 416.432C534.578 415.756 534.846 415.107 535.323 414.627C535.8 414.148 536.447 413.877 537.123 413.873H538.982C539.317 413.873 539.649 413.939 539.959 414.068C540.269 414.197 540.55 414.385 540.787 414.623C541.023 414.861 541.21 415.143 541.337 415.454C541.464 415.764 541.529 416.097 541.527 416.432C541.527 417.107 541.259 417.754 540.782 418.232C540.304 418.709 539.657 418.977 538.982 418.977Z" fill="#263238" stroke="#263238" stroke-miterlimit="10"/>
<path d="M457.383 502.506V440.296H429.974V502.721" fill="white"/>
<path d="M457.383 502.506V440.296H429.974V502.721" stroke="#263238" stroke-linecap="round" stroke-linejoin="round"/>
<path d="M457.397 440.296H443.686V503.278H457.397V440.296Z" fill="#263238" stroke="#263238" stroke-linecap="round" stroke-linejoin="round"/>
<path d="M580.16 502.506V440.296H552.736V502.721" fill="white"/>
<path d="M580.16 502.506V440.296H552.736V502.721" stroke="#263238" stroke-linecap="round" stroke-linejoin="round"/>
<path d="M580.16 440.296H566.448V503.278H580.16V440.296Z" fill="#263238" stroke="#263238" stroke-linecap="round" stroke-linejoin="round"/>
<path d="M587.466 429.644H28.4141V451.348H587.466V429.644Z" fill="white" stroke="#263238" stroke-miterlimit="10"/>
<path d="M587.466 429.644H452.95V451.348H587.466V429.644Z" fill="#263238" stroke="#263238" stroke-miterlimit="10"/>
<path d="M587.466 423.724H28.4141V431.345H587.466V423.724Z" fill="white" stroke="#263238" stroke-miterlimit="10"/>
<path d="M587.467 423.724H465.147V431.345H587.467V423.724Z" fill="#263238" stroke="#263238" stroke-miterlimit="10"/>
<path d="M206.511 126.897C206.511 126.897 207.526 135.719 206.854 139.108C206.182 142.497 202.45 144.541 202.779 146.915C203.108 149.288 211.601 161.499 207.526 165.574C205.458 167.817 202.905 169.558 200.062 170.664L197.36 176.84C197.36 176.84 181.074 187.364 174.626 190.08C168.178 192.797 173.94 205.679 173.94 205.679L157.311 201.948L153.251 221.164C153.251 221.164 140.697 208.939 123.725 203.52C106.753 198.102 100.319 198.774 100.319 198.774C103.07 191.986 105.116 184.933 106.425 177.727C108.798 165.173 110.156 137.349 110.156 135.319C110.156 133.289 121.009 102.076 130.517 95.9566C140.025 89.837 178.687 96.6429 199.047 101.676C219.407 106.709 210.586 121.35 210.586 121.35L206.511 126.897Z" fill="white" stroke="#263238" stroke-miterlimit="10"/>
<path d="M205.838 137.75C205.838 137.75 204.823 134.018 200.405 135.376C195.987 136.735 194.971 139.108 196.673 139.108C198.374 139.108 202.392 137.078 203.464 139.108C204.537 141.138 205.495 140.123 205.838 137.75Z" fill="#263238" stroke="#263238" stroke-miterlimit="10"/>
<path d="M199.733 149.96L197.688 150.99C197.688 150.99 200.748 153.02 199.389 157.767C198.031 162.514 196.673 166.589 196.673 166.589" stroke="#263238" stroke-miterlimit="10"/>
<path d="M187.508 117.732C187.508 117.732 190.568 130.601 189.21 133.346C187.851 136.091 177.671 139.794 176.656 143.526C175.641 147.258 173.61 167.275 174.282 171.007C174.954 174.739 176.656 181.187 178.357 181.187C180.059 181.187 192.655 171.679 197.359 171.336C202.063 170.993 200.062 179.486 197.688 182.202C195.315 184.919 190.539 185.591 190.911 188.651C191.283 191.71 197.359 202.219 190.568 211.384C183.776 220.549 175.984 218.533 167.834 212.056C159.684 205.579 158.34 194.756 160.685 188.651C163.03 182.545 166.79 166.589 167.133 159.468C167.477 152.348 165.775 143.183 160.685 145.17C155.595 147.158 159.67 167.232 155.938 171.636C152.206 176.04 137.265 188.608 133.204 188.608C129.144 188.608 107.068 178.771 106.396 177.741C105.724 176.712 108.426 131.258 105.724 113.286C103.021 95.3132 109.455 82.4021 130.144 76.2968C150.834 70.1916 188.552 81.4298 188.552 81.4298C188.552 81.4298 184.82 75.3246 192.956 72.608C201.091 69.8914 220.436 77.3549 221.795 89.5797C223.153 101.804 216.076 102.133 217.048 106.194C218.02 110.255 230.96 118.076 224.197 124.524C217.434 130.972 206.553 126.898 206.553 126.898L205.195 116.374C205.195 116.374 198.031 107.552 187.508 117.732Z" fill="#263238" stroke="#263238" stroke-miterlimit="10"/>
<path d="M189.209 143.183L156.982 142.168C156.982 142.168 150.19 143.855 149.518 147.587C148.846 151.319 148.16 160.14 150.19 160.455C152.221 160.77 152.235 158.425 152.235 155.365C152.235 152.305 152.235 147.558 154.937 145.871C157.267 144.708 159.803 144.013 162.401 143.826L189.896 146.543L215.632 148.588V144.17L189.209 143.183Z" fill="#5E5E5E" stroke="#263238" stroke-miterlimit="10"/>
<path d="M166.133 156.409C166.133 156.409 167.162 145.556 161.729 142.497C156.295 139.437 152.564 147.93 152.235 155.365C151.906 162.8 156.982 171.993 163.43 170.292" fill="white"/>
<path d="M166.133 156.409C166.133 156.409 167.162 145.556 161.729 142.497C156.295 139.437 152.564 147.93 152.235 155.365C151.906 162.8 156.982 171.993 163.43 170.292" stroke="#263238" stroke-miterlimit="10"/>
<path d="M215.718 148.616C215.718 148.616 216.39 156.409 213.344 160.14C212.189 161.497 210.811 162.648 209.27 163.543" stroke="#263238" stroke-miterlimit="10"/>
<path d="M310.286 211.785L296.645 259.526L286.422 286.806L275.341 316.203C275.341 316.203 244.643 315.789 231.017 313.229C217.391 310.67 192.842 301.948 192.842 301.948C204.963 282.603 214.346 261.672 220.723 239.752C226.514 219.506 231.003 203.263 231.003 203.263L310.286 211.785Z" fill="white" stroke="#263238" stroke-miterlimit="10"/>
<path d="M241.969 233.661C241.969 233.661 231.76 270.307 227.585 277.727L277.199 285.148C277.199 285.148 286.478 268.905 293.442 240.61L241.969 233.661Z" stroke="#A3A3A3" stroke-miterlimit="10"/>
<path d="M239.182 242.011L290.669 248.96" stroke="#A3A3A3" stroke-miterlimit="10"/>
<path d="M236.865 254.064L286.336 260.627" stroke="#A3A3A3" stroke-miterlimit="10"/>
<path d="M232.79 266.317L282.433 273.281" stroke="#A3A3A3" stroke-miterlimit="10"/>
<path d="M265.146 270.979L255.409 297.673L271.18 300.919L276.756 282.36" stroke="#A3A3A3" stroke-miterlimit="10"/>
<path d="M208.569 280.501L228.973 284.218" stroke="#A3A3A3" stroke-miterlimit="10"/>
<path d="M207.182 283.289L227.585 287.007" stroke="#A3A3A3" stroke-miterlimit="10"/>
<path d="M205.781 286.077L226.199 289.78" stroke="#A3A3A3" stroke-miterlimit="10"/>
<path d="M233.162 206.595L227.014 227.913L298.79 236.535L305.753 215.202L233.162 206.595Z" fill="#92A4E3"/>
<path d="M235.736 210.798L237.294 210.955L234.434 220.964L232.876 220.793L235.736 210.798Z" fill="#263238"/>
<path d="M239.081 214.015L237.036 221.164L235.606 221.021L238.466 211.013L240.411 211.213L240.325 217.332L242.012 211.384L243.442 211.527L240.582 221.465L238.981 221.307L239.081 214.015Z" fill="#263238"/>
<path d="M244.571 220.049L248.074 212.056L249.504 212.214L245.214 221.994L242.884 221.751L244.185 211.656L245.758 211.813L244.571 220.049Z" fill="#263238"/>
<path d="M249.405 214.659C249.531 213.958 249.922 213.332 250.497 212.911C251.072 212.491 251.787 212.308 252.493 212.4C254.023 212.557 254.595 213.558 254.137 215.145L252.707 220.306C252.588 221.008 252.2 221.636 251.627 222.057C251.053 222.479 250.339 222.661 249.633 222.565C248.103 222.408 247.517 221.422 247.975 219.82L249.405 214.659ZM249.405 220.092C249.204 220.793 249.405 221.093 249.934 221.15C250.463 221.207 250.82 220.964 251.02 220.249L252.55 214.887C252.75 214.173 252.55 213.872 252.021 213.815C251.492 213.758 251.135 214.001 250.934 214.716L249.405 220.092Z" fill="#263238"/>
<path d="M255.824 212.857L257.383 213.014L254.523 223.023L252.965 222.866L255.824 212.857Z" fill="#263238"/>
<path d="M261.272 219.835L260.886 221.164C260.776 221.862 260.398 222.49 259.831 222.912C259.265 223.334 258.555 223.518 257.855 223.423C256.325 223.266 255.796 222.265 256.239 220.678L257.669 215.517C257.782 214.816 258.163 214.187 258.731 213.763C259.3 213.339 260.011 213.152 260.714 213.243C262.244 213.4 262.773 214.401 262.33 215.988L262.044 216.961L260.614 216.803L260.915 215.731C261.129 215.03 260.915 214.73 260.386 214.673C259.857 214.616 259.513 214.859 259.299 215.574L257.769 220.935C257.569 221.65 257.769 221.936 258.312 221.994C258.856 222.051 259.184 221.822 259.385 221.107L259.799 219.677L261.272 219.835Z" fill="#263238"/>
<path d="M264.332 218.047L266.477 218.276L266.062 219.706L263.932 219.491L263.102 222.351L265.79 222.637L265.39 224.067L261.101 223.624L263.96 213.686L268.25 214.13L267.849 215.559L265.147 215.273L264.332 218.047Z" fill="#263238"/>
<path d="M297.217 221.565C297.35 222.648 297.151 223.746 296.645 224.713C296.139 225.681 295.351 226.471 294.385 226.98C293.419 227.488 292.322 227.69 291.238 227.56C290.154 227.429 289.136 226.972 288.319 226.249C287.501 225.526 286.923 224.571 286.662 223.511C286.4 222.451 286.467 221.337 286.854 220.317C287.241 219.296 287.929 218.417 288.828 217.797C289.726 217.178 290.792 216.846 291.883 216.846C293.216 216.768 294.524 217.22 295.524 218.105C296.523 218.989 297.132 220.233 297.217 221.565Z" fill="white"/>
<path d="M246.359 359.254C246.359 359.254 259.141 329 260.414 317.061C261.687 305.122 262.544 294.041 265.533 290.638C268.521 287.235 275.341 271.036 276.614 266.332C277.886 261.628 280.903 256.952 284.277 260.355C287.652 263.758 286.422 271.865 285.135 274.853C283.848 277.842 282.147 282.531 282.147 282.531L291.098 272.723L296.645 259.512C296.645 259.512 301.335 259.512 302.178 263.801C303.022 268.09 308.155 274.453 306.868 278.285C305.934 280.716 304.109 282.7 301.764 283.832C301.764 283.832 303.894 294.484 303.465 298.316C302.496 303.35 299.776 307.878 295.787 311.099C291.498 314.502 279.602 325.583 279.602 325.583C279.602 325.583 285.564 370.764 279.602 392.926C273.64 415.088 262.973 421.908 255.295 423.195C247.617 424.482 232.719 407.467 232.719 407.467C232.719 407.467 248.489 399.317 246.359 359.254Z" fill="white" stroke="#263238" stroke-miterlimit="10"/>
<path d="M301.763 283.818L294.943 290.638" stroke="#263238" stroke-miterlimit="10"/>
<path d="M291.097 272.737L297.917 267.19" stroke="#263238" stroke-miterlimit="10"/>
<path d="M95.615 190.18C95.615 190.18 107.525 187.321 125.641 194.956C138.908 200.319 150.565 209.017 159.484 220.206C163.404 225.479 166.606 231.248 169.007 237.364C169.007 237.364 99.9044 210.684 92.2836 210.684H75.126C75.126 210.684 84.1766 191.138 95.615 190.18Z" fill="white" stroke="#263238" stroke-miterlimit="10"/>
<path d="M332.962 503.307C277.672 454.694 191.412 454.694 191.412 454.694L178.544 442.312H25.4404V504.007" fill="white"/>
<path d="M332.962 503.307C277.672 454.694 191.412 454.694 191.412 454.694L178.543 442.312H25.4404V504.007" stroke="#263238" stroke-miterlimit="10"/>
<path d="M188.08 457.553C188.08 457.553 180.931 488.537 167.104 501.877" stroke="#263238" stroke-miterlimit="10"/>
<path d="M183.791 455.18C178.401 467.391 169.636 477.808 158.526 485.206" stroke="#263238" stroke-miterlimit="10"/>
<path d="M77.0275 204.965C77.0275 204.965 87.5079 202.577 108.011 206.866C128.515 211.156 158.526 228.785 171.866 234.504C185.206 240.224 195.701 240.71 198.089 249.289C200.477 257.867 226.685 338.88 238.123 347.945C254.981 361.299 271.009 384.748 252.421 404.179C241.455 415.617 226.685 416.575 220.008 414.187C213.33 411.8 197.131 395.128 197.131 389.881V383.204L165.675 346.987C165.675 346.987 172.352 403.707 175.212 411.328C178.072 418.949 185.692 429.915 185.692 434.676C185.692 439.438 174.726 448.975 161.858 457.081C148.989 465.188 136.121 472.337 106.581 473.767C77.0418 475.197 41.7543 470.422 34.1335 460.413C26.5127 450.404 16.9759 438.494 16.0179 421.808C15.06 405.122 11.7285 339.366 11.7285 339.366C11.7285 339.366 13.6444 285.977 15.0742 268.348C16.504 250.718 20.3073 239.28 29.3723 235.462C38.4372 231.645 70.8365 204.965 77.0275 204.965Z" fill="#92A4E3" stroke="#263238" stroke-miterlimit="10"/>
<path d="M91.8262 314.873C93.1326 316.928 94.5652 318.901 96.1156 320.778" stroke="#263238" stroke-miterlimit="10"/>
<path d="M70.3506 248.33C70.3506 248.33 75.4693 284.075 88.2803 308.711" stroke="#263238" stroke-miterlimit="10"/>
<path d="M73.6963 293.126C73.6963 293.126 84.1767 326.969 100.376 344.599" stroke="#263238" stroke-miterlimit="10"/>
<path d="M141.841 318.391L165.676 346.987" stroke="#263238" stroke-miterlimit="10"/>
<path d="M134.691 309.812L138.409 314.259" stroke="#263238" stroke-miterlimit="10"/>
<path d="M135.649 322.68L158.054 338.88" stroke="#263238" stroke-miterlimit="10"/>
<path d="M167.577 259.769C167.577 259.769 145.186 281.216 145.658 305.994" stroke="#263238" stroke-miterlimit="10"/>
<path d="M238.123 347.945C238.123 347.945 246.216 363.673 234.306 375.111C222.395 386.549 197.131 383.204 197.131 383.204V389.881C197.131 395.128 213.331 411.8 220.008 414.187C226.685 416.575 241.455 415.617 252.421 404.179C271.037 384.748 254.981 361.285 238.123 347.945Z" fill="white" stroke="#263238" stroke-miterlimit="10"/>
<path d="M175.212 411.328L149.476 387.021" stroke="#263238" stroke-miterlimit="10"/>
<path d="M135.178 373.195L160.428 391.311" stroke="#263238" stroke-miterlimit="10"/>
<path d="M98.9609 398.703C100.781 400.028 102.692 401.222 104.68 402.277" stroke="#263238" stroke-miterlimit="10"/>
<path d="M43.6699 356.995C43.6699 356.995 72.3517 379.386 90.596 392.74" stroke="#263238" stroke-miterlimit="10"/>
<path d="M49.3896 371.293C49.3896 371.293 70.3505 386.549 73.6963 388.451" stroke="#263238" stroke-miterlimit="10"/>
<path d="M25.1973 382.017H138.152C141.659 382.017 145.023 383.41 147.504 385.891C149.984 388.371 151.377 391.735 151.377 395.243V491.754C151.377 494.314 150.36 496.769 148.55 498.578C146.741 500.388 144.286 501.405 141.726 501.405H21.6228C19.0632 501.405 16.6084 500.388 14.7984 498.578C12.9885 496.769 11.9717 494.314 11.9717 491.754V395.243C11.9717 391.735 13.3651 388.371 15.8454 385.891C18.3257 383.41 21.6897 382.017 25.1973 382.017Z" fill="#263238" stroke="#263238" stroke-miterlimit="10"/>
<path d="M13.7589 382.017H126.713C130.221 382.017 133.585 383.41 136.065 385.891C138.545 388.371 139.939 391.735 139.939 395.243V491.754C139.939 494.314 138.922 496.769 137.112 498.578C135.302 500.388 132.847 501.405 130.288 501.405H10.1844C7.62471 501.405 5.1699 500.388 3.35996 498.578C1.55002 496.769 0.533203 494.314 0.533203 491.754V395.243C0.533203 391.735 1.92662 388.371 4.40691 385.891C6.8872 383.41 10.2512 382.017 13.7589 382.017Z" fill="#636363" stroke="#263238" stroke-miterlimit="10"/>
<path d="M26.9851 509.712V417.047C26.9851 415.909 26.5331 414.818 25.7287 414.014C24.9243 413.21 23.8333 412.758 22.6957 412.758C21.558 412.758 20.467 413.21 19.6626 414.014C18.8582 414.818 18.4062 415.909 18.4062 417.047V509.712H26.9851Z" fill="#263238"/>
<path d="M104.909 509.712V417.047C104.909 415.909 104.457 414.818 103.653 414.014C102.848 413.21 101.757 412.758 100.619 412.758C99.4819 412.758 98.3908 413.21 97.5864 414.014C96.782 414.818 96.3301 415.909 96.3301 417.047V509.712H104.909Z" fill="#263238"/>
</svg>
